<?xml version="1.0" encoding="utf-8"?>
<!-- Generator: Adobe Illustrator 21.1.0, SVG Export Plug-In . SVG Version: 6.00 Build 0)  -->
<svg version="1.1" id="Layer_1" xmlns="http://www.w3.org/2000/svg" xmlns:xlink="http://www.w3.org/1999/xlink" x="0px" y="0px"
	 viewBox="0 0 469.3 512" style="enable-background:new 0 0 469.3 512;" xml:space="preserve">
<style type="text/css">
	.st0{fill:#43A1C0;}
</style>
<g>
	<g>
		<path class="st0" d="M448,232.1c-11.8,0-21.3-9.6-21.3-21.3c0-59.8-23.3-116.1-65.6-158.4c-8.3-8.3-8.3-21.8,0-30.2
			c8.3-8.3,21.8-8.3,30.2,0c50.4,50.4,78.1,117.3,78.1,188.6C469.3,222.6,459.8,232.1,448,232.1L448,232.1z M448,232.1"/>
		<path class="st0" d="M21.3,232.1C9.6,232.1,0,222.6,0,210.8C0,139.6,27.7,72.6,78.1,22.2c8.3-8.3,21.8-8.3,30.2,0
			c8.3,8.3,8.3,21.8,0,30.2C66,94.7,42.7,151,42.7,210.8C42.7,222.6,33.1,232.1,21.3,232.1L21.3,232.1z M21.3,232.1"/>
		<path class="st0" d="M434.8,360.8c-32.3-27.3-50.8-67.1-50.8-109.3V192c0-75.1-55.8-137.2-128-147.6v-23C256,9.5,246.4,0,234.7,0
			c-11.8,0-21.3,9.5-21.3,21.3v23c-72.3,10.4-128,72.6-128,147.6v59.5c0,42.2-18.5,82.1-50.9,109.5c-8.3,7.1-13.1,17.4-13.1,28.4
			c0,20.6,16.7,37.3,37.3,37.3h352c20.6,0,37.3-16.7,37.3-37.3C448,378.4,443.2,368.1,434.8,360.8L434.8,360.8z M434.8,360.8"/>
		<path class="st0" d="M234.7,512c38.6,0,71-27.5,78.4-64H156.3C163.7,484.5,196,512,234.7,512L234.7,512z M234.7,512"/>
	</g>
</g>
</svg>
