<?xml version="1.0" encoding="utf-8"?>
<!-- Generator: Adobe Illustrator 21.1.0, SVG Export Plug-In . SVG Version: 6.00 Build 0)  -->
<svg version="1.1" id="Layer_1" xmlns="http://www.w3.org/2000/svg" xmlns:xlink="http://www.w3.org/1999/xlink" x="0px" y="0px"
	 viewBox="0 0 409.2 154.1" style="enable-background:new 0 0 409.2 154.1;" xml:space="preserve">
<style type="text/css">
	.st0{clip-path:url(#SVGID_2_);}
	.st1{opacity:0.8;}
	.st2{clip-path:url(#SVGID_6_);fill:#00286C;}
	.st3{fill:#FFFFFF;}
	.st4{clip-path:url(#SVGID_8_);fill:url(#SVGID_9_);}
	.st5{clip-path:url(#SVGID_11_);}
	.st6{clip-path:url(#SVGID_13_);fill:url(#SVGID_14_);}
	.st7{fill:#00286C;}
	.st8{opacity:0.3;}
	.st9{clip-path:url(#SVGID_16_);fill:#2E0C45;}
	.st10{clip-path:url(#SVGID_16_);}
	.st11{filter:url(#Adobe_OpacityMaskFilter);}
	.st12{clip-path:url(#SVGID_18_);fill:url(#SVGID_20_);}
	.st13{clip-path:url(#SVGID_18_);mask:url(#SVGID_19_);fill:url(#SVGID_21_);}
	.st14{filter:url(#Adobe_OpacityMaskFilter_1_);}
	.st15{clip-path:url(#SVGID_23_);fill:url(#SVGID_25_);}
	.st16{clip-path:url(#SVGID_23_);mask:url(#SVGID_24_);fill:url(#SVGID_26_);}
	.st17{opacity:0.86;clip-path:url(#SVGID_28_);}
	.st18{clip-path:url(#SVGID_30_);}
	.st19{filter:url(#Adobe_OpacityMaskFilter_2_);}
	.st20{clip-path:url(#SVGID_32_);fill:url(#SVGID_34_);}
	.st21{clip-path:url(#SVGID_32_);mask:url(#SVGID_33_);fill:url(#SVGID_35_);}
	.st22{opacity:0.67;clip-path:url(#SVGID_37_);}
	.st23{clip-path:url(#SVGID_39_);}
	.st24{filter:url(#Adobe_OpacityMaskFilter_3_);}
	.st25{clip-path:url(#SVGID_41_);fill:url(#SVGID_43_);}
	.st26{clip-path:url(#SVGID_41_);mask:url(#SVGID_42_);fill:url(#SVGID_44_);}
	.st27{clip-path:url(#SVGID_37_);}
	.st28{clip-path:url(#SVGID_46_);fill:#FFFFFF;}
	.st29{clip-path:url(#SVGID_48_);}
	.st30{filter:url(#Adobe_OpacityMaskFilter_4_);}
	.st31{clip-path:url(#SVGID_52_);fill:url(#SVGID_54_);}
	.st32{clip-path:url(#SVGID_52_);mask:url(#SVGID_53_);fill:url(#SVGID_55_);}
	.st33{clip-path:url(#SVGID_57_);}
	.st34{filter:url(#Adobe_OpacityMaskFilter_5_);}
	.st35{clip-path:url(#SVGID_61_);fill:url(#SVGID_63_);}
	.st36{clip-path:url(#SVGID_61_);mask:url(#SVGID_62_);fill:url(#SVGID_64_);}
	.st37{clip-path:url(#SVGID_66_);}
	.st38{filter:url(#Adobe_OpacityMaskFilter_6_);}
	.st39{clip-path:url(#SVGID_70_);fill:url(#SVGID_72_);}
	.st40{clip-path:url(#SVGID_70_);mask:url(#SVGID_71_);fill:url(#SVGID_73_);}
	.st41{clip-path:url(#SVGID_75_);}
	.st42{filter:url(#Adobe_OpacityMaskFilter_7_);}
	.st43{clip-path:url(#SVGID_79_);fill:url(#SVGID_81_);}
	.st44{clip-path:url(#SVGID_79_);mask:url(#SVGID_80_);fill:url(#SVGID_82_);}
	.st45{clip-path:url(#SVGID_84_);}
	.st46{filter:url(#Adobe_OpacityMaskFilter_8_);}
	.st47{clip-path:url(#SVGID_88_);fill:url(#SVGID_90_);}
	.st48{clip-path:url(#SVGID_88_);mask:url(#SVGID_89_);fill:url(#SVGID_91_);}
	.st49{clip-path:url(#SVGID_93_);}
	.st50{filter:url(#Adobe_OpacityMaskFilter_9_);}
	.st51{clip-path:url(#SVGID_97_);fill:url(#SVGID_99_);}
	.st52{clip-path:url(#SVGID_97_);mask:url(#SVGID_98_);fill:url(#SVGID_100_);}
	.st53{clip-path:url(#SVGID_102_);}
	.st54{filter:url(#Adobe_OpacityMaskFilter_10_);}
	.st55{clip-path:url(#SVGID_106_);fill:url(#SVGID_108_);}
	.st56{clip-path:url(#SVGID_106_);mask:url(#SVGID_107_);fill:url(#SVGID_109_);}
	.st57{clip-path:url(#SVGID_111_);}
	.st58{filter:url(#Adobe_OpacityMaskFilter_11_);}
	.st59{clip-path:url(#SVGID_115_);fill:url(#SVGID_117_);}
	.st60{clip-path:url(#SVGID_115_);mask:url(#SVGID_116_);fill:url(#SVGID_118_);}
	.st61{opacity:0.26;}
	.st62{clip-path:url(#SVGID_120_);}
	.st63{clip-path:url(#SVGID_122_);}
	.st64{filter:url(#Adobe_OpacityMaskFilter_12_);}
	.st65{clip-path:url(#SVGID_124_);fill:url(#SVGID_126_);}
	.st66{clip-path:url(#SVGID_124_);mask:url(#SVGID_125_);fill:url(#SVGID_127_);}
	.st67{opacity:0.86;clip-path:url(#SVGID_120_);}
	.st68{clip-path:url(#SVGID_129_);}
	.st69{filter:url(#Adobe_OpacityMaskFilter_13_);}
	.st70{clip-path:url(#SVGID_131_);fill:url(#SVGID_133_);}
	.st71{clip-path:url(#SVGID_131_);mask:url(#SVGID_132_);fill:url(#SVGID_134_);}
	.st72{clip-path:url(#SVGID_136_);}
	.st73{filter:url(#Adobe_OpacityMaskFilter_14_);}
	.st74{clip-path:url(#SVGID_138_);fill:url(#SVGID_140_);}
	.st75{clip-path:url(#SVGID_138_);mask:url(#SVGID_139_);fill:url(#SVGID_141_);}
	.st76{clip-path:url(#SVGID_143_);}
	.st77{filter:url(#Adobe_OpacityMaskFilter_15_);}
	.st78{clip-path:url(#SVGID_145_);fill:url(#SVGID_147_);}
	.st79{clip-path:url(#SVGID_145_);mask:url(#SVGID_146_);fill:url(#SVGID_148_);}
	.st80{clip-path:url(#SVGID_150_);}
	.st81{filter:url(#Adobe_OpacityMaskFilter_16_);}
	.st82{clip-path:url(#SVGID_152_);fill:url(#SVGID_154_);}
	.st83{clip-path:url(#SVGID_152_);mask:url(#SVGID_153_);fill:url(#SVGID_155_);}
	.st84{clip-path:url(#SVGID_157_);}
	.st85{filter:url(#Adobe_OpacityMaskFilter_17_);}
	.st86{clip-path:url(#SVGID_159_);fill:url(#SVGID_161_);}
	.st87{clip-path:url(#SVGID_159_);mask:url(#SVGID_160_);fill:url(#SVGID_162_);}
	.st88{clip-path:url(#SVGID_164_);}
	.st89{filter:url(#Adobe_OpacityMaskFilter_18_);}
	.st90{clip-path:url(#SVGID_166_);fill:url(#SVGID_168_);}
	.st91{clip-path:url(#SVGID_166_);mask:url(#SVGID_167_);fill:url(#SVGID_169_);}
	.st92{clip-path:url(#SVGID_171_);}
	.st93{filter:url(#Adobe_OpacityMaskFilter_19_);}
	.st94{clip-path:url(#SVGID_173_);fill:url(#SVGID_175_);}
	.st95{clip-path:url(#SVGID_173_);mask:url(#SVGID_174_);fill:url(#SVGID_176_);}
	.st96{opacity:0.86;}
	.st97{clip-path:url(#SVGID_178_);}
	.st98{filter:url(#Adobe_OpacityMaskFilter_20_);}
	.st99{clip-path:url(#SVGID_180_);fill:url(#SVGID_182_);}
	.st100{clip-path:url(#SVGID_180_);mask:url(#SVGID_181_);fill:url(#SVGID_183_);}
	.st101{clip-path:url(#SVGID_185_);}
	.st102{filter:url(#Adobe_OpacityMaskFilter_21_);}
	.st103{clip-path:url(#SVGID_187_);fill:url(#SVGID_189_);}
	.st104{clip-path:url(#SVGID_187_);mask:url(#SVGID_188_);fill:url(#SVGID_190_);}
	.st105{clip-path:url(#SVGID_192_);}
	.st106{clip-path:url(#SVGID_194_);fill:url(#SVGID_195_);}
	.st107{clip-path:url(#SVGID_197_);}
	.st108{filter:url(#Adobe_OpacityMaskFilter_22_);}
	.st109{clip-path:url(#SVGID_201_);fill:url(#SVGID_203_);}
	.st110{clip-path:url(#SVGID_201_);mask:url(#SVGID_202_);fill:url(#SVGID_204_);}
	.st111{clip-path:url(#SVGID_206_);}
	.st112{filter:url(#Adobe_OpacityMaskFilter_23_);}
	.st113{clip-path:url(#SVGID_210_);fill:url(#SVGID_212_);}
	.st114{clip-path:url(#SVGID_210_);mask:url(#SVGID_211_);fill:url(#SVGID_213_);}
	.st115{clip-path:url(#SVGID_215_);}
	.st116{filter:url(#Adobe_OpacityMaskFilter_24_);}
	.st117{clip-path:url(#SVGID_219_);fill:url(#SVGID_221_);}
	.st118{clip-path:url(#SVGID_219_);mask:url(#SVGID_220_);fill:url(#SVGID_222_);}
	.st119{clip-path:url(#SVGID_224_);}
	.st120{filter:url(#Adobe_OpacityMaskFilter_25_);}
	.st121{clip-path:url(#SVGID_228_);fill:url(#SVGID_230_);}
	.st122{clip-path:url(#SVGID_228_);mask:url(#SVGID_229_);fill:url(#SVGID_231_);}
	.st123{clip-path:url(#SVGID_233_);}
	.st124{filter:url(#Adobe_OpacityMaskFilter_26_);}
	.st125{clip-path:url(#SVGID_237_);fill:url(#SVGID_239_);}
	.st126{clip-path:url(#SVGID_237_);mask:url(#SVGID_238_);fill:url(#SVGID_240_);}
	.st127{clip-path:url(#SVGID_242_);}
	.st128{filter:url(#Adobe_OpacityMaskFilter_27_);}
	.st129{clip-path:url(#SVGID_246_);fill:url(#SVGID_248_);}
	.st130{clip-path:url(#SVGID_246_);mask:url(#SVGID_247_);fill:url(#SVGID_249_);}
	.st131{clip-path:url(#SVGID_251_);}
	.st132{filter:url(#Adobe_OpacityMaskFilter_28_);}
	.st133{clip-path:url(#SVGID_255_);fill:url(#SVGID_257_);}
	.st134{clip-path:url(#SVGID_255_);mask:url(#SVGID_256_);fill:url(#SVGID_258_);}
	.st135{clip-path:url(#SVGID_260_);}
	.st136{filter:url(#Adobe_OpacityMaskFilter_29_);}
	.st137{clip-path:url(#SVGID_264_);fill:url(#SVGID_266_);}
	.st138{clip-path:url(#SVGID_264_);mask:url(#SVGID_265_);fill:url(#SVGID_267_);}
	.st139{clip-path:url(#SVGID_269_);}
	.st140{clip-path:url(#SVGID_271_);}
	.st141{filter:url(#Adobe_OpacityMaskFilter_30_);}
	.st142{clip-path:url(#SVGID_273_);fill:url(#SVGID_275_);}
	.st143{clip-path:url(#SVGID_273_);mask:url(#SVGID_274_);fill:url(#SVGID_276_);}
	.st144{opacity:0.86;clip-path:url(#SVGID_269_);}
	.st145{clip-path:url(#SVGID_278_);}
	.st146{filter:url(#Adobe_OpacityMaskFilter_31_);}
	.st147{clip-path:url(#SVGID_280_);fill:url(#SVGID_282_);}
	.st148{clip-path:url(#SVGID_280_);mask:url(#SVGID_281_);fill:url(#SVGID_283_);}
	.st149{clip-path:url(#SVGID_285_);}
	.st150{filter:url(#Adobe_OpacityMaskFilter_32_);}
	.st151{clip-path:url(#SVGID_287_);fill:url(#SVGID_289_);}
	.st152{clip-path:url(#SVGID_287_);mask:url(#SVGID_288_);fill:url(#SVGID_290_);}
	.st153{clip-path:url(#SVGID_292_);}
	.st154{filter:url(#Adobe_OpacityMaskFilter_33_);}
	.st155{clip-path:url(#SVGID_294_);fill:url(#SVGID_296_);}
	.st156{clip-path:url(#SVGID_294_);mask:url(#SVGID_295_);fill:url(#SVGID_297_);}
	.st157{clip-path:url(#SVGID_299_);}
	.st158{filter:url(#Adobe_OpacityMaskFilter_34_);}
	.st159{clip-path:url(#SVGID_301_);fill:url(#SVGID_303_);}
	.st160{clip-path:url(#SVGID_301_);mask:url(#SVGID_302_);fill:url(#SVGID_304_);}
	.st161{clip-path:url(#SVGID_306_);}
	.st162{filter:url(#Adobe_OpacityMaskFilter_35_);}
	.st163{clip-path:url(#SVGID_308_);fill:url(#SVGID_310_);}
	.st164{clip-path:url(#SVGID_308_);mask:url(#SVGID_309_);fill:url(#SVGID_311_);}
	.st165{clip-path:url(#SVGID_313_);}
	.st166{filter:url(#Adobe_OpacityMaskFilter_36_);}
	.st167{clip-path:url(#SVGID_315_);fill:url(#SVGID_317_);}
	.st168{clip-path:url(#SVGID_315_);mask:url(#SVGID_316_);fill:url(#SVGID_318_);}
	.st169{clip-path:url(#SVGID_320_);}
	.st170{filter:url(#Adobe_OpacityMaskFilter_37_);}
	.st171{clip-path:url(#SVGID_322_);fill:url(#SVGID_324_);}
	.st172{clip-path:url(#SVGID_322_);mask:url(#SVGID_323_);fill:url(#SVGID_325_);}
	.st173{clip-path:url(#SVGID_327_);}
	.st174{filter:url(#Adobe_OpacityMaskFilter_38_);}
	.st175{clip-path:url(#SVGID_329_);fill:url(#SVGID_331_);}
	.st176{clip-path:url(#SVGID_329_);mask:url(#SVGID_330_);fill:url(#SVGID_332_);}
	.st177{clip-path:url(#SVGID_334_);}
	.st178{filter:url(#Adobe_OpacityMaskFilter_39_);}
	.st179{clip-path:url(#SVGID_336_);fill:url(#SVGID_338_);}
	.st180{clip-path:url(#SVGID_336_);mask:url(#SVGID_337_);fill:url(#SVGID_339_);}
</style>
<g>
	<g class="st1">
		<g>
			<defs>
				<rect id="SVGID_5_" width="409.2" height="154.1"/>
			</defs>
			<clipPath id="SVGID_2_">
				<use xlink:href="#SVGID_5_"  style="overflow:visible;"/>
			</clipPath>
			<path style="clip-path:url(#SVGID_2_);fill:#00286C;" d="M409.2,77.1c0,42.6-34.5,77.1-77.1,77.1H77.1C34.5,154.1,0,119.6,0,77.1
				S34.5,0,77.1,0h255.1C374.7,0,409.2,34.5,409.2,77.1"/>
		</g>
	</g>
	<path class="st3" d="M268.1,30.1h8.2c7,0,8.2,4.8,8.2,12.1c0,8.8-1.9,12.8-8.5,12.8h-7.9V30.1z M273.1,51.3h2.2
		c3.5,0,4.2-2.2,4.2-8.9c0-5.6-0.4-8.5-4.3-8.5h-2.1V51.3z"/>
	<polygon class="st3" points="301.7,30.1 301.7,34.2 292.8,34.2 292.8,40 301.2,40 301.2,44.2 292.8,44.2 292.8,50.8 302,50.8 
		302,55 287.8,55 287.8,30.1 	"/>
	<g>
		<defs>
			<polygon id="SVGID_7_" points="323.9,32.2 318.3,41.1 323.9,50 337.3,50 331.7,41.1 337.3,32.2 			"/>
		</defs>
		<clipPath id="SVGID_4_">
			<use xlink:href="#SVGID_7_"  style="overflow:visible;"/>
		</clipPath>
		
			<linearGradient id="SVGID_6_" gradientUnits="userSpaceOnUse" x1="594.7988" y1="-332.2805" x2="596.1249" y2="-332.2805" gradientTransform="matrix(14.3413 0 0 -14.3413 -8211.874 -4724.2295)">
			<stop  offset="0" style="stop-color:#D8AC2E"/>
			<stop  offset="0.2576" style="stop-color:#D6A127"/>
			<stop  offset="1" style="stop-color:#D08316"/>
		</linearGradient>
		<rect x="318.3" y="32.2" style="clip-path:url(#SVGID_4_);fill:url(#SVGID_6_);" width="19" height="17.8"/>
	</g>
	<path class="st3" d="M284,120.7l-6.7,6.1h12.9v5.5H269v-5.2l11.6-11c2.7-2.5,3.8-4.4,3.8-6.6c0-2.9-2-5.1-4.7-5.1
		c-3.1,0-5.1,2.6-5.1,6.5h-5.8c0-7.5,4.6-11.9,10.9-11.9c6.1,0,10.7,4.6,10.7,10.6C290.3,113.7,289,116.2,284,120.7"/>
	<path class="st3" d="M305.1,132.9c-6.7,0-11.3-4.2-11.3-11.5v-11.1c0-6.9,4.3-11.2,11-11.2c6.6,0,10.9,4.3,10.9,10.9v11.4
		C315.8,128.7,311.6,132.9,305.1,132.9 M309.9,110.3c0-3.8-1.8-5.8-5-5.8c-3.2,0-5.1,2.2-5.1,5.8v10.9c0,4.1,1.8,6.3,5.2,6.3
		c3.2,0,5-2,5-6.2V110.3z"/>
	<path class="st3" d="M334.5,120.7l-6.7,6.1h12.9v5.5h-21.2v-5.2l11.6-11c2.7-2.5,3.8-4.4,3.8-6.6c0-2.9-2-5.1-4.7-5.1
		c-3.1,0-5.1,2.6-5.1,6.5h-5.8c0-7.5,4.6-11.9,10.8-11.9c6.1,0,10.7,4.6,10.7,10.6C340.8,113.7,339.5,116.2,334.5,120.7"/>
	<path class="st3" d="M355.6,132.9c-6.7,0-11.3-4.2-11.3-11.5v-11.1c0-6.9,4.3-11.2,11-11.2c6.6,0,10.9,4.3,10.9,10.9v11.4
		C366.3,128.7,362.1,132.9,355.6,132.9 M360.4,110.3c0-3.8-1.8-5.8-5-5.8c-3.2,0-5.1,2.2-5.1,5.8v10.9c0,4.1,1.8,6.3,5.2,6.3
		c3.1,0,5-2,5-6.2V110.3z"/>
	<g>
		<path class="st3" d="M44,83.3L32.2,94.1H55v9.8H17.5v-9.2l20.6-19.5c4.7-4.5,6.7-7.8,6.7-11.6c0-5.2-3.6-9.1-8.4-9.1
			c-5.4,0-9,4.5-9,11.4H17.1c0-13.3,8.1-21,19.2-21c10.7,0,18.9,8.2,18.9,18.8C55.2,70.9,52.8,75.4,44,83.3z"/>
		<path class="st3" d="M80.3,104.9c-11.7,0-20.3-8.5-20.3-20c0-5.6,1.6-10,5.7-16.2l15.1-22.7h12.5L79.4,66.5
			c1.9-0.6,2.9-0.8,4.7-0.8c9.2,0,16,7.8,16,18.3C100.1,96.2,91.8,104.9,80.3,104.9z M80.2,74.9c-5.8,0-9.7,4.2-9.7,10.3
			c0,6,4.2,10.2,9.9,10.2c5.6,0,9.4-4.2,9.4-10.2C89.7,79.2,85.6,74.9,80.2,74.9z"/>
	</g>
	<g>
		<path class="st3" d="M138.2,114.3h-8.1l5.9-13.4l-11.5-28.4h8.6l7,20.3l7.6-20.3h8.7L138.2,114.3z"/>
	</g>
	<g>
		<path class="st3" d="M202.4,83.3l-11.8,10.7h22.8v9.8H176v-9.2l20.6-19.5c4.7-4.5,6.7-7.8,6.7-11.6c0-5.2-3.6-9.1-8.4-9.1
			c-5.4,0-9,4.5-9,11.4h-10.3c0-13.3,8.1-21,19.2-21c10.7,0,18.9,8.2,18.9,18.8C213.7,70.9,211.2,75.4,202.4,83.3z"/>
		<path class="st3" d="M234.8,103.9h-11.8L245,55.7h-23.1v-9.8H256v9.8L234.8,103.9z"/>
	</g>
	<g>
		<path class="st3" d="M285.8,88.2l-2.4-5.8h-8l-2.5,5.8h-4.6l9.4-22.5h3.3l9.5,22.5H285.8z M279.3,71.6l-2.4,6.8h4.8L279.3,71.6z"
			/>
		<path class="st3" d="M302.8,88.6c-6.9,0-12.3-5.1-12.3-11.7c0-6.5,5.3-11.6,11.9-11.6c4.9,0,9.5,3,11,7h-4.9c-1.4-2-3.6-3-6.2-3
			c-4.5,0-7.6,3.4-7.6,7.7c0,4.3,3.4,7.6,7.8,7.6c3,0,5.4-1.5,6.6-4h-9.3v-3.9h14.7v0.5C314.5,83.4,309.4,88.6,302.8,88.6z"/>
		<path class="st3" d="M328,88.6c-6.6,0-11.9-5.2-11.9-11.6c0-6.6,5.2-11.7,11.9-11.7c6.4,0,11.6,5.2,11.6,11.6
			C339.6,83.5,334.5,88.6,328,88.6z M328,69.3c-4.3,0-7.6,3.3-7.6,7.7c0,4.3,3.4,7.6,7.6,7.6s7.4-3.3,7.4-7.6
			C335.4,72.7,332.1,69.3,328,69.3z"/>
		<path class="st3" d="M348.7,88.6c-4,0-7-2.6-7.4-6.8h4.4c0.2,1.9,1.2,2.8,3,2.8c1.8,0,3-1.1,3-2.7c0-0.9-0.4-1.8-1-2.3
			c-0.7-0.5-0.9-0.6-3.9-1.7c-3-1.1-4.7-3.3-4.7-6.1c0-3.6,2.9-6.4,6.6-6.4s6.5,2.4,6.7,6.4H351c-0.1-1.5-1-2.4-2.4-2.4
			c-1.4,0-2.3,0.9-2.3,2.3c0,0.8,0.4,1.5,1.3,2c0.3,0.2,0.4,0.2,2.5,1c4.6,1.7,5.8,3.7,5.8,6.7C355.8,85.5,352.7,88.6,348.7,88.6z"
			/>
		<path class="st3" d="M365.2,69.7v18.5h-4.2V69.7h-4.2v-4h12.5v4H365.2z"/>
		<path class="st3" d="M381.7,88.6c-6.6,0-11.9-5.2-11.9-11.6c0-6.6,5.2-11.7,11.9-11.7c6.4,0,11.6,5.2,11.6,11.6
			C393.3,83.5,388.2,88.6,381.7,88.6z M381.6,69.3c-4.3,0-7.6,3.3-7.6,7.7c0,4.3,3.4,7.6,7.6,7.6s7.4-3.3,7.4-7.6
			C389.1,72.7,385.8,69.3,381.6,69.3z"/>
	</g>
</g>
</svg>
