<?xml version="1.0" encoding="utf-8"?>
<!-- Generator: Adobe Illustrator 21.1.0, SVG Export Plug-In . SVG Version: 6.00 Build 0)  -->
<svg version="1.1" id="Capa_1" xmlns="http://www.w3.org/2000/svg" xmlns:xlink="http://www.w3.org/1999/xlink" x="0px" y="0px"
	 viewBox="0 0 22.9 22.9" style="enable-background:new 0 0 22.9 22.9;" xml:space="preserve">
<style type="text/css">
	.st0{fill:#81C41D;}
	.st1{fill:#FFFFFF;}
</style>
<circle class="st0" cx="11.4" cy="11.4" r="11.4"/>
<g>
	<g>
		<path class="st1" d="M11.2,7c0.3,0,0.6,0,0.9,0.1c1.7,0.4,3.1,3,2.4,4.7c-0.1,0.3-0.3,0.4-0.6,0.4c0,0,0,0,0,0
			c-0.4,0-0.6-0.2-0.6-0.6c0-0.4,0-0.7,0-1.1c-0.1,0-0.2-0.2-0.2-0.2c0,0,0,0,0,0c-0.2,0.6-0.2,1.2,0,1.8c0,1.9,0,3.8,0,5.7
			c0,0.5,0,1-0.5,1.4c-0.2,0-0.3,0-0.5,0c-0.4-0.2-0.8-0.3-0.7-0.8c0-0.5,0-1,0-1.5c0-0.7,0-1.3,0-2c0,0.6,0,1.2,0,1.7
			c0,0.6,0,1.2,0,1.7c0.1,0.5-0.3,0.7-0.7,0.8c-0.2,0-0.3,0-0.5,0c-0.5-0.3-0.5-0.7-0.5-1.2c0-2.2,0.1-4.5,0.1-6.7
			c0-0.4,0.1-0.9-0.1-1.3c-0.3,0.6-0.1,1.1-0.1,1.7c0,0.4-0.2,0.6-0.6,0.6c0,0,0,0,0,0c-0.3,0-0.5-0.2-0.6-0.4
			c-0.2-1.3,0-2.6,0.8-3.7C9.7,7.3,10.4,7,11.2,7 M11.2,6.4c-1.1,0-2,0.4-2.6,1.3c-0.9,1.1-1.2,2.5-0.9,4.2c0.1,0.6,0.6,1,1.2,1
			c0,0,0.1,0,0.1,0c0.1,0,0.2,0,0.2,0c0,1.7,0,3.4-0.1,5.1c0,0.5,0,1.3,0.8,1.8c0.1,0.1,0.2,0.1,0.3,0.1h0.5c0.1,0,0.2,0,0.3-0.1
			l0.1,0c0.1,0,0.2-0.1,0.4-0.2c0.1,0.1,0.3,0.1,0.4,0.2l0.1,0c0.1,0,0.2,0.1,0.3,0.1h0.5c0.1,0,0.2,0,0.3-0.1
			c0.7-0.5,0.7-1.3,0.7-1.8l0-0.1c0-1.4,0-2.7,0-4.1l0-0.8c0.1,0,0.1,0,0.2,0c0,0,0,0,0,0c0.4,0,0.9-0.1,1.2-0.8
			c0.4-1,0.3-2.2-0.3-3.4c-0.6-1.1-1.5-1.9-2.5-2.1C11.9,6.4,11.5,6.4,11.2,6.4L11.2,6.4z"/>
	</g>
	<g>
		<path class="st1" d="M11.4,3.8c0.8,0,1.2,0.5,1.3,1.2c0,0.8-0.5,1.3-1.3,1.3c0,0,0,0,0,0c-0.8,0-1.2-0.5-1.2-1.3
			C10.1,4.3,10.6,3.8,11.4,3.8C11.3,3.8,11.4,3.8,11.4,3.8 M11.4,3.2C11.4,3.2,11.3,3.2,11.4,3.2C10.3,3.2,9.5,4,9.5,5
			c0,0.6,0.2,1,0.5,1.4c0.3,0.3,0.8,0.5,1.3,0.5c1.1,0,1.8-0.7,1.9-1.9c0,0,0-0.1,0-0.1C13.1,3.9,12.4,3.2,11.4,3.2L11.4,3.2z"/>
	</g>
</g>
</svg>
