<?xml version="1.0" encoding="utf-8"?>
<!-- Generator: Adobe Illustrator 21.1.0, SVG Export Plug-In . SVG Version: 6.00 Build 0)  -->
<svg version="1.1" id="Capa_1" xmlns="http://www.w3.org/2000/svg" xmlns:xlink="http://www.w3.org/1999/xlink" x="0px" y="0px"
	 viewBox="0 0 22.9 22.9" style="enable-background:new 0 0 22.9 22.9;" xml:space="preserve">
<style type="text/css">
	.st0{fill:#81C41D;}
	.st1{fill:none;stroke:#FFFFFF;stroke-width:0.75;stroke-miterlimit:10;}
</style>
<circle class="st0" cx="11.4" cy="11.4" r="11.4"/>
<path class="st1" d="M17.6,10.7c-0.6,1.7-1.4,3.3-2.5,4.7c-0.3,0.5-0.7,1-1.1,1.4l-1,1.3c-0.4,0.5-0.9,1.1-1.3,1.6h-0.2l-1.3-1.6
	l-1-1.3c-0.4-0.5-0.7-1-1.1-1.5c-1-1.4-1.8-2.9-2.4-4.5c-1-3.4,2-7.1,5.5-7.3h0.8C15.5,3.8,18.5,7.3,17.6,10.7z"/>
<circle class="st1" cx="12" cy="7.6" r="1.5"/>
<path class="st1" d="M11.8,9.1L11.8,9.1c-1.5,0-2.7,1.2-2.7,2.7l0,0l0,0c0,0.4,0.3,0.7,0.7,0.7h3.9c0.4,0,0.7-0.3,0.7-0.7l0,0
	C14.5,10.3,13.3,9.1,11.8,9.1C11.8,9.1,11.8,9.1,11.8,9.1z"/>
</svg>
