<?xml version="1.0" encoding="utf-8"?>
<!-- Generator: Adobe Illustrator 21.1.0, SVG Export Plug-In . SVG Version: 6.00 Build 0)  -->
<svg version="1.1" id="Capa_1" xmlns="http://www.w3.org/2000/svg" xmlns:xlink="http://www.w3.org/1999/xlink" x="0px" y="0px"
	 viewBox="0 0 22.9 22.9" style="enable-background:new 0 0 22.9 22.9;" xml:space="preserve">
<style type="text/css">
	.st0{fill:#81C41D;}
	.st1{fill:none;stroke:#FFFFFF;stroke-width:0.75;stroke-miterlimit:10;}
	.st2{fill:#FFFFFF;}
</style>
<circle class="st0" cx="11.4" cy="11.4" r="11.4"/>
<circle class="st1" cx="11.3" cy="8.1" r="2.3"/>
<path class="st1" d="M11.3,10.6L11.3,10.6c-2.4,0-4.3,1.9-4.3,4.3l0,0c0,0.6,0.5,1.1,1.1,1.1h6.3c0.6,0,1.1-0.5,1.1-1.1l0,0l0,0
	C15.6,12.6,13.7,10.6,11.3,10.6C11.3,10.6,11.3,10.6,11.3,10.6z"/>
<path class="st2" d="M6.3,12.2h0.2c-0.1-0.2-0.1-0.4-0.1-0.6H6.3c-0.8,0-1.5-0.7-1.5-1.5c0-0.8,0.7-1.5,1.5-1.5
	c0.3,0,0.7,0.1,0.9,0.3C7.4,9,7.5,9.2,7.6,9.3c0.2-0.1,0.3-0.2,0.5-0.3c-0.6-1-1.8-1.3-2.8-0.8s-1.3,1.8-0.8,2.8
	c0.2,0.3,0.4,0.5,0.7,0.7c-1.1,0.4-2,1.4-2.2,2.6c0,0-0.2,0.9,0.4,0.9h2.5v-0.6H3.8c-0.2,0-0.2-0.4-0.1-0.5c0.4-1,1.3-1.8,2.3-1.9
	L6.3,12.2z"/>
<path class="st2" d="M16.1,12.2h-0.2C16,12,16,11.8,16,11.6h0.1c0.8,0,1.5-0.7,1.5-1.5c0-0.8-0.7-1.5-1.5-1.5
	c-0.3,0-0.7,0.1-0.9,0.3c-0.1,0.1-0.3,0.3-0.4,0.4c-0.2-0.1-0.3-0.2-0.5-0.3c0.6-1,1.8-1.3,2.8-0.8c1,0.6,1.3,1.8,0.8,2.8
	c-0.2,0.3-0.4,0.5-0.7,0.7c1.1,0.4,1.9,1.4,2.1,2.6c0,0,0.2,0.9-0.4,0.9h-2.4v-0.6h2.1c0.2,0,0.2-0.4,0.1-0.5
	c-0.3-1-1.2-1.7-2.3-1.9L16.1,12.2z"/>
</svg>
