<?xml version="1.0" encoding="utf-8"?>
<!-- Generator: Adobe Illustrator 21.1.0, SVG Export Plug-In . SVG Version: 6.00 Build 0)  -->
<svg version="1.1" id="Capa_1" xmlns="http://www.w3.org/2000/svg" xmlns:xlink="http://www.w3.org/1999/xlink" x="0px" y="0px"
	 viewBox="0 0 342.9 342.9" style="enable-background:new 0 0 342.9 342.9;" xml:space="preserve">
<style type="text/css">
	.st0{fill:#D4BB04;}
	.st1{fill:#FFFFFF;}
	.st2{fill:none;stroke:#D4BB04;stroke-width:18;stroke-miterlimit:10;}
	.st3{fill:#D4BB04;stroke:#D4BB04;stroke-width:6;stroke-miterlimit:10;}
	.st4{fill:none;stroke:#D4BB04;stroke-width:8;stroke-miterlimit:10;}
	.st5{fill:#D0BE18;stroke:#D0BE18;stroke-width:7;stroke-miterlimit:10;}
</style>
<g>
	<path class="st2" d="M252.1,110.2h-114c-1.7,0-3.1,1.4-3.1,3.1v9.6c0,1.7-1.2,3.1-2.9,3.2c-1.8,0.1-3.3-1.3-3.3-3.1v-9.7
		c0-1.7-1.4-3.1-3.1-3.1H90.8c-6.9,0-12.4,5.6-12.4,12.4v17.1c0,4.6,2.5,8.8,6.5,10.9c16.7,8.9,16.7,32.9,0,41.7
		c-4,2.1-6.5,6.3-6.5,10.9v17.1c0,6.9,5.6,12.4,12.4,12.4h34.9c1.7,0,3.1-1.4,3.1-3.1V220c0-1.7,1.2-3.1,2.9-3.2
		c1.8-0.1,3.3,1.3,3.3,3.1v9.7c0,1.7,1.4,3.1,3.1,3.1h114c6.9,0,12.4-5.6,12.4-12.4v-97.7C264.5,115.7,258.9,110.2,252.1,110.2
		L252.1,110.2z M206.8,192.8"/>
</g>
<path class="st0" d="M171.4,0c-20.7,0-40.5,3.6-58.8,10.4C47.6,34.1,1.1,95.9,0,168.9c0,0.8,0,1.7,0,2.6c0,33.3,9.5,64.5,26,90.8
	c30.3,48.4,84.1,80.6,145.4,80.6c18.3,0,35.9-2.9,52.4-8.1c8.5-2.8,16.8-6.1,24.7-10.1c33.7-17,61-44.8,77.4-78.9
	c10.9-22.5,16.9-47.6,16.9-74.3C342.9,76.8,266.1,0,171.4,0z M171.4,305.6c-74.1,0-134.1-60-134.1-134.1
	c0-74.1,60-134.1,134.1-134.1s134.1,60,134.1,134.1C305.5,245.6,245.5,305.6,171.4,305.6z"/>
<path class="st4" d="M132.2,198.4c0,1.8-1.5,3.3-3.3,3.3c-1.8,0-3.3-1.5-3.3-3.3v-13.1c0-1.8,1.5-3.3,3.3-3.3c1.8,0,3.3,1.5,3.3,3.3
	V198.4z"/>
<path class="st4" d="M132.2,157.6c0,1.8-1.5,3.3-3.3,3.3c-1.8,0-3.3-1.5-3.3-3.3v-13.1c0-1.8,1.5-3.3,3.3-3.3c1.8,0,3.3,1.5,3.3,3.3
	V157.6z"/>
<path class="st4" d="M170.2,155.1c0-3.6,3-6.6,6.6-6.6c3.6,0,6.6,3,6.6,6.6c0,3.6-3,6.6-6.6,6.6
	C173.1,161.7,170.2,158.7,170.2,155.1L170.2,155.1z"/>
<path class="st4" d="M173.3,191.2c-1.3-1.3-1.3-3.4,0-4.7l32.7-32.7c1.3-1.3,3.4-1.3,4.7,0c1.3,1.3,1.3,3.4,0,4.7l-32.7,32.7
	C176.8,192.5,174.6,192.5,173.3,191.2L173.3,191.2z"/>
<path class="st4" d="M209.4,194.4c-3.6,0-6.6-3-6.6-6.6c0-3.6,3-6.6,6.6-6.6c3.6,0,6.6,3,6.6,6.6C216,191.4,213.1,194.4,209.4,194.4
	L209.4,194.4z"/>
</svg>
