<?xml version="1.0" encoding="utf-8"?>
<!-- Generator: Adobe Illustrator 21.1.0, SVG Export Plug-In . SVG Version: 6.00 Build 0)  -->
<svg version="1.1" id="Layer_1" focusable="false" xmlns="http://www.w3.org/2000/svg" xmlns:xlink="http://www.w3.org/1999/xlink"
	 x="0px" y="0px" viewBox="0 0 512 512" style="enable-background:new 0 0 512 512;" xml:space="preserve">
<style type="text/css">
	.st0{fill:#FFFFFF;}
	.st1{fill:#3462B5;}
</style>
<g>
	<ellipse class="st0" cx="256" cy="256" rx="253.5" ry="249.9"/>
</g>
<path class="st1" d="M398.2,124.8H113.8c-18.1,0-32.8,14.7-32.8,32.8v196.9c0,18.1,14.7,32.8,32.8,32.8h284.4
	c18.1,0,32.8-14.7,32.8-32.8V157.6C431,139.4,416.3,124.8,398.2,124.8z M398.2,157.6v27.9c-15.3,12.5-39.8,31.9-92,72.8
	c-11.5,9-34.3,30.8-50.2,30.6c-15.9,0.3-38.7-21.5-50.2-30.6c-52.2-40.9-76.7-60.3-92-72.8v-27.9H398.2z M113.8,354.4V227.6
	c15.7,12.5,37.9,30,71.7,56.5c15,11.8,41.1,37.7,70.5,37.6c29.2,0.1,55-25.4,70.5-37.5c33.8-26.5,56.1-44,71.7-56.5v126.9H113.8z"/>
</svg>
