<?xml version="1.0" encoding="utf-8"?>
<!-- Generator: Adobe Illustrator 25.0.0, SVG Export Plug-In . SVG Version: 6.00 Build 0)  -->
<svg version="1.1" id="Layer_1" focusable="false" xmlns="http://www.w3.org/2000/svg" xmlns:xlink="http://www.w3.org/1999/xlink"
	 x="0px" y="0px" viewBox="0 0 512 512" style="enable-background:new 0 0 512 512;" xml:space="preserve">
<style type="text/css">
	.st0{fill:#3DA3C1;}
	.st1{fill:#3A9A48;}
	.st2{fill:#FEFEFE;}
	.st3{fill:#D04600;}
	.st4{fill:#FFFFFF;}
</style>
<g>
	<g>
		<ellipse class="st0" cx="256" cy="256.9" rx="256" ry="252.4"/>
	</g>
</g>
<path class="st4" d="M305.3,202.5c-8.1-49.8-27.1-84.7-49.3-84.7s-41.2,34.9-49.3,84.7H305.3z M202.5,256c0,12.4,0.7,24.2,1.8,35.7
	h103.2c1.2-11.4,1.8-23.3,1.8-35.7c0-12.4-0.7-24.2-1.8-35.7H204.4C203.2,231.8,202.5,243.6,202.5,256z M383.5,202.5
	c-15.9-37.8-48.2-67.1-88-78.9c13.6,18.8,23,47.2,27.9,78.9H383.5z M216.6,123.6c-39.8,11.8-72.1,41.1-88,78.9h60.2
	C193.6,170.8,203,142.4,216.6,123.6L216.6,123.6z M389.4,220.3h-63.9c1.2,11.7,1.8,23.7,1.8,35.7c0,12-0.7,24-1.8,35.7h63.9
	c3.1-11.4,4.8-23.3,4.8-35.7C394.2,243.6,392.4,231.8,389.4,220.3L389.4,220.3z M184.7,256c0-12,0.7-24,1.8-35.7h-63.9
	c-3,11.4-4.8,23.3-4.8,35.7s1.8,24.2,4.8,35.7h63.9C185.4,280,184.7,268,184.7,256z M206.7,309.5c8.1,49.8,27.1,84.7,49.3,84.7
	c22.2,0,41.2-34.9,49.3-84.7H206.7z M295.5,388.4c39.8-11.8,72.1-41.1,88-78.9h-60.2C318.4,341.2,309.1,369.6,295.5,388.4z
	 M128.6,309.5c15.9,37.8,48.2,67.1,88,78.9c-13.6-18.8-23-47.2-27.9-78.9C188.8,309.5,128.6,309.5,128.6,309.5z"/>
</svg>
