<?xml version="1.0" encoding="utf-8"?>
<!-- Generator: Adobe Illustrator 25.0.0, SVG Export Plug-In . SVG Version: 6.00 Build 0)  -->
<svg version="1.1" id="Layer_1" focusable="false" xmlns="http://www.w3.org/2000/svg" xmlns:xlink="http://www.w3.org/1999/xlink"
	 x="0px" y="0px" viewBox="0 0 512 512" style="enable-background:new 0 0 512 512;" xml:space="preserve">
<style type="text/css">
	.st0{fill:#3DA3C1;}
	.st1{fill:#3A9A48;}
	.st2{fill:#FEFEFE;}
	.st3{fill:#D04600;}
	.st4{fill:#FFFFFF;}
</style>
<g>
	<ellipse class="st1" cx="256" cy="256.9" rx="256" ry="252.4"/>
</g>
<path class="st2" d="M178.4,127.2l-18-0.9c-5.6,0-11.4,1.8-15.1,5.6c-8.5,7.6-22.7,21.8-26.5,40.7c-6.7,28.5,3.8,62.5,28.5,96.6
	s72.1,89,155.4,112.7c26.5,7.6,47.4,2.9,64.5-7.6c13.3-8.5,21.8-21.8,24.7-35.9l2.9-13.3c0.9-3.8-0.9-8.5-4.7-10.3l-59.7-27.4
	c-3.8-1.8-8.5-0.9-11.4,2.9l-23.6,30.3c-1.8,1.8-4.7,2.9-7.6,1.8c-16.2-5.6-70.1-28.5-99.5-85.3c-0.9-2.9-0.9-5.6,0.9-7.6l22.7-25.6
	c1.8-2.9,2.9-6.7,1.8-9.4l-27.4-61.5C185.2,130.1,182.3,127.2,178.4,127.2"/>
</svg>
