<?xml version="1.0" encoding="utf-8"?>
<!-- Generator: Adobe Illustrator 25.0.0, SVG Export Plug-In . SVG Version: 6.00 Build 0)  -->
<svg version="1.1" id="Layer_1" focusable="false" xmlns="http://www.w3.org/2000/svg" xmlns:xlink="http://www.w3.org/1999/xlink"
	 x="0px" y="0px" viewBox="0 0 512 512" style="enable-background:new 0 0 512 512;" xml:space="preserve">
<style type="text/css">
	.st0{fill:#3DA3C1;}
	.st1{fill:#3A9A48;}
	.st2{fill:#FEFEFE;}
	.st3{fill:#D04600;}
	.st4{fill:#FFFFFF;}
</style>
<g>
	<ellipse class="st3" cx="256" cy="256.9" rx="256" ry="252.4"/>
</g>
<g>
	<path class="st4" d="M392.3,187.3c-3.3-12.3-12.9-22-25.1-25.3c-22.2-6-111.1-6-111.1-6s-88.9,0-111.1,6
		c-12.2,3.3-21.9,13-25.1,25.3c-5.9,22.3-5.9,68.9-5.9,68.9s0,46.6,5.9,68.9c3.3,12.3,12.9,21.6,25.1,24.9c22.2,6,111.1,6,111.1,6
		s88.9,0,111.1-6c12.2-3.3,21.9-12.6,25.1-24.9c5.9-22.3,5.9-68.9,5.9-68.9S398.2,209.6,392.3,187.3z M226.9,298.5v-84.6l74.3,42.3
		L226.9,298.5L226.9,298.5z"/>
</g>
</svg>
