<?xml version="1.0" encoding="utf-8"?>
<!-- Generator: Adobe Illustrator 25.0.0, SVG Export Plug-In . SVG Version: 6.00 Build 0)  -->
<svg version="1.1" id="Layer_1" focusable="false" xmlns="http://www.w3.org/2000/svg" xmlns:xlink="http://www.w3.org/1999/xlink"
	 x="0px" y="0px" viewBox="0 0 512 512" style="enable-background:new 0 0 512 512;" xml:space="preserve">
<style type="text/css">
	.st0{fill:#3DA3C1;}
	.st1{fill:#3A9A48;}
	.st2{fill:#FEFEFE;}
	.st3{fill:#D04600;}
	.st4{fill:#FFFFFF;}
</style>
<g>
	<g>
		<ellipse class="st0" cx="256" cy="256.9" rx="256" ry="252.4"/>
	</g>
</g>
<path class="st4" d="M308.3,251.6v15.3c0,3.6-2.9,6.5-6.5,6.5h-91.6c-3.6,0-6.5-2.9-6.5-6.5v-15.3c0-3.6,2.9-6.5,6.5-6.5h91.6
	C305.4,245.1,308.3,248,308.3,251.6z M301.8,290.9h-91.6c-3.6,0-6.5,2.9-6.5,6.5v15.3c0,3.6,2.9,6.5,6.5,6.5h91.6
	c3.6,0,6.5-2.9,6.5-6.5v-15.3C308.3,293.8,305.4,290.9,301.8,290.9z M360.7,188.4v181c0,14.4-11.7,26.2-26.2,26.2h-157
	c-14.4,0-26.2-11.7-26.2-26.2V142.6c0-14.4,11.7-26.2,26.2-26.2h111.2c6.9,0,13.6,2.8,18.5,7.7l45.7,45.7
	C357.9,174.7,360.7,181.4,360.7,188.4z M290.9,144.8v41.5h41.5C332.4,186.2,290.9,144.8,290.9,144.8z M334.5,369.4v-157h-56.7
	c-7.2,0-13.1-5.8-13.1-13.1v-56.7h-87.2v226.7H334.5z"/>
</svg>
