<?xml version="1.0" encoding="utf-8"?>
<!-- Generator: Adobe Illustrator 22.1.0, SVG Export Plug-In . SVG Version: 6.00 Build 0)  -->
<svg version="1.1" id="Layer_1" xmlns="http://www.w3.org/2000/svg" xmlns:xlink="http://www.w3.org/1999/xlink" x="0px" y="0px"
	 viewBox="0 0 319.7 190.8" style="enable-background:new 0 0 319.7 190.8;" xml:space="preserve">
<style type="text/css">
	.st0{fill:#002756;}
	.st1{fill:#8DB800;}
	.st2{fill:#FAA819;}
	.st3{fill:#FFBC05;}
	.st4{opacity:0.2;}
</style>
<g>
	<g>
		<path class="st0" d="M59.9,167.6c0,1.3-1,2.3-2.3,2.3H44.8c-1.3,0-2.3-1-2.3-2.3v-22.9c0-1.3,1-2.3,2.3-2.3h12.7
			c1.3,0,2.3,1,2.3,2.3c0,1.3-1,2.3-2.3,2.3H47.1v6.8h8.1c1.3,0,2.3,1,2.3,2.3c0,1.3-1,2.3-2.3,2.3h-8.1v6.8h10.4
			C58.9,165.3,59.9,166.3,59.9,167.6z"/>
		<path class="st0" d="M85.1,166.3c0.3,0.4,0.4,0.9,0.4,1.3c0,1.2-1.1,2.3-2.3,2.3c-0.8,0-1.5-0.4-1.9-1l-6.2-8.7l-6.2,8.7
			c-0.4,0.6-1.2,1-1.9,1c-1.3,0-2.3-1.1-2.3-2.3c0-0.4,0.1-0.9,0.4-1.3l7.2-10.1l-7.2-10.1c-0.3-0.4-0.4-0.7-0.4-1.2
			c0-1.2,0.9-2.4,2.3-2.4c0.8,0,1.5,0.4,1.9,1l6.2,8.7l6.2-8.7c0.4-0.6,1.2-1,1.9-1c1.3,0,2.3,1.1,2.3,2.3c0,0.5-0.2,0.9-0.4,1.3
			l-7.2,10.1L85.1,166.3z"/>
		<path class="st0" d="M90.3,167.6v-22.9c0-1.3,1-2.3,2.3-2.3h6.3c0.2,0,2.3,0,4.5,1.1c3.1,1.5,4.8,4.3,4.8,8c0,0.2,0,2.3-1.1,4.5
			c-1.5,3-4.5,4.7-8.2,4.7h-4v6.8c0,1.3-1,2.3-2.3,2.3C91.3,169.9,90.3,168.9,90.3,167.6z M95,156.2h4c2,0,3.3-0.7,4-2.1
			c0.6-1.2,0.7-2.4,0.7-2.5c0-2-0.7-3.2-2.2-4c-1.2-0.6-2.5-0.6-2.5-0.6h-4V156.2z"/>
		<path class="st0" d="M113,156.2c0-7.6,6-13.7,13.3-13.7c7.4,0,13.4,6.1,13.4,13.7s-6,13.7-13.4,13.7
			C119,169.9,113,163.7,113,156.2z M117.7,156.2c0,5,3.9,9.1,8.7,9.1c4.8,0,8.7-4.1,8.7-9.1c0-5-3.9-9.1-8.7-9.1
			C121.6,147.1,117.7,151.1,117.7,156.2z"/>
		<path class="st0" d="M164.2,144.8v22.9c0,1.3-1,2.3-2.3,2.3c-1.3,0-2.3-1-2.3-2.3v-9.2h-10.4v9.2c0,1.3-1.1,2.3-2.3,2.3
			s-2.3-1-2.3-2.3v-22.9c0-1.3,1-2.3,2.3-2.3s2.3,1,2.3,2.3v9.2h10.4v-9.2c0-1.3,1-2.3,2.3-2.3C163.2,142.5,164.2,143.5,164.2,144.8
			z"/>
		<path class="st0" d="M169,156.2c0-7.6,6-13.7,13.3-13.7s13.4,6.1,13.4,13.7s-6,13.7-13.4,13.7S169,163.7,169,156.2z M173.6,156.2
			c0,5,3.9,9.1,8.7,9.1c4.8,0,8.7-4.1,8.7-9.1c0-5-3.9-9.1-8.7-9.1C177.5,147.1,173.6,151.1,173.6,156.2z"/>
		<path class="st0" d="M204.4,165.9c-2.6-2.6-4.1-6-4.1-9.7c0-3.6,1.4-7.1,4.1-9.7c2.6-2.6,6.1-4,9.9-4c3.7,0,7.2,1.4,9.9,4
			c0.4,0.4,0.6,1,0.6,1.6c0,0.6-0.2,1.2-0.7,1.6c-0.5,0.5-1,0.7-1.6,0.7c-0.6,0-1.2-0.2-1.6-0.7c-1.7-1.7-4.1-2.7-6.6-2.7
			c-2.5,0-4.8,0.9-6.6,2.7c-1.7,1.7-2.7,4-2.7,6.5c0,2.4,1,4.7,2.7,6.5c1.8,1.8,4.2,2.7,6.6,2.7c2.1,0,4.2-0.7,5.9-2.1v-4.8h-5.8
			c-1.3,0-2.3-1-2.3-2.3c0-1.3,1.1-2.3,2.3-2.3h8.1c1.3,0,2.3,1,2.3,2.3v8.1c0,0.6-0.2,1.2-0.7,1.6c-2.7,2.7-6.3,4-9.8,4
			C210.7,169.9,207.1,168.6,204.4,165.9z"/>
		<path class="st0" d="M252.6,166.8c0.1,0.3,0.2,0.6,0.2,0.9c0,1.2-0.9,2.3-2.3,2.3c-0.9,0-1.8-0.5-2.1-1.4l-1.7-4.3h-10.8l-1.7,4.3
			c-0.4,0.9-1.2,1.4-2.1,1.4c-1.4,0-2.3-1.1-2.3-2.3c0-0.3,0-0.6,0.2-0.9l9.3-22.8c0.4-0.9,1.2-1.4,2.2-1.4c0.9,0,1.8,0.6,2.1,1.4
			L252.6,166.8z M244.7,159.6l-3.5-8.7l-3.5,8.7H244.7z"/>
		<path class="st0" d="M275.1,166.4c0.2,0.4,0.4,0.8,0.4,1.2c0,0.7-0.4,1.5-1.1,1.9c-0.4,0.2-0.8,0.4-1.2,0.4c-0.8,0-1.5-0.4-2-1.1
			l-5.1-8.1h-3.9v6.8c0,1.3-1.1,2.3-2.3,2.3s-2.3-1-2.3-2.3v-22.9c0-1.3,1-2.3,2.3-2.3h6.3c0.2,0,2.3,0,4.5,1.1
			c3.1,1.5,4.8,4.3,4.8,8c0,0.2,0,2.3-1.1,4.5c-0.8,1.6-2,2.8-3.5,3.6L275.1,166.4z M262.2,156.2h4c2,0,3.3-0.7,4-2.1
			c0.6-1.2,0.7-2.4,0.7-2.5c0-2-0.7-3.2-2.2-4c-1.2-0.6-2.5-0.6-2.5-0.6h-4V156.2z"/>
	</g>
	<g>
		<path class="st1" d="M50.1,126c0.5,0,1,0.4,1,1c0,0.5-0.5,1-1,1h-4.9v2.9h3.9c0.5,0,1,0.4,1,1s-0.4,1-1,1h-3.9v3.9
			c0,0.5-0.5,1-1,1s-1-0.4-1-1V127c0-0.5,0.4-1,1-1H50.1z"/>
		<path class="st1" d="M60.5,136.7c0,0.5-0.4,1-1,1h-5.4c-0.6,0-1-0.4-1-1V127c0-0.5,0.4-1,1-1h5.4c0.6,0,1,0.4,1,1c0,0.5-0.4,1-1,1
			H55v2.9h3.4c0.5,0,1,0.4,1,1s-0.4,1-1,1H55v2.9h4.4C60,135.7,60.5,136.1,60.5,136.7z"/>
		<path class="st1" d="M69.9,136.1c0.1,0.2,0.2,0.3,0.2,0.5c0,0.3-0.2,0.6-0.5,0.8c-0.2,0.1-0.3,0.1-0.5,0.1c-0.3,0-0.7-0.2-0.8-0.4
			l-2.2-3.4h-1.7v2.9c0,0.5-0.5,1-1,1s-1-0.4-1-1V127c0-0.5,0.4-1,1-1h2.7c0.1,0,1,0,1.9,0.5c1.3,0.6,2,1.8,2,3.4c0,0.1,0,1-0.5,1.9
			c-0.4,0.7-0.9,1.2-1.5,1.5L69.9,136.1z M64.4,131.8h1.7c0.8,0,1.4-0.3,1.7-0.9c0.3-0.5,0.3-1,0.3-1.1c0-0.8-0.3-1.4-0.9-1.7
			c-0.5-0.2-1-0.2-1-0.2h-1.7V131.8z"/>
		<path class="st1" d="M72.1,136.7V127c0-0.5,0.4-1,1-1s1,0.4,1,1v9.7c0,0.5-0.4,1-1,1S72.1,137.2,72.1,136.7z"/>
		<path class="st1" d="M85.8,136.3c0.1,0.1,0.1,0.2,0.1,0.4c0,0.5-0.4,1-1,1c-0.4,0-0.8-0.2-0.9-0.6l-0.7-1.8h-4.6L78,137
			c-0.2,0.4-0.5,0.6-0.9,0.6c-0.6,0-1-0.5-1-1c0-0.1,0-0.2,0.1-0.4l3.9-9.7c0.2-0.4,0.5-0.6,0.9-0.6c0.4,0,0.8,0.2,0.9,0.6
			L85.8,136.3z M82.5,133.3l-1.5-3.7l-1.5,3.7H82.5z"/>
		<path class="st1" d="M97.1,137l-3.9-9.7c-0.1-0.1-0.1-0.2-0.1-0.3c0-0.5,0.4-1,1-1c0.4,0,0.8,0.2,0.9,0.6l3,7.4l3-7.4
			c0.2-0.4,0.5-0.6,0.9-0.6c0.6,0,1,0.5,1,1c0,0.1,0,0.2-0.1,0.4L99,137c-0.2,0.4-0.5,0.6-0.9,0.6C97.6,137.6,97.3,137.4,97.1,137z"
			/>
		<path class="st1" d="M105,136.7V127c0-0.5,0.4-1,1-1s1,0.4,1,1v9.7c0,0.5-0.4,1-1,1S105,137.2,105,136.7z"/>
		<path class="st1" d="M116.4,136.1c0.1,0.2,0.2,0.3,0.2,0.5c0,0.3-0.2,0.6-0.5,0.8c-0.2,0.1-0.3,0.1-0.5,0.1
			c-0.3,0-0.7-0.2-0.8-0.4l-2.2-3.4h-1.7v2.9c0,0.5-0.5,1-1,1s-1-0.4-1-1V127c0-0.5,0.4-1,1-1h2.7c0.1,0,1,0,1.9,0.5
			c1.3,0.6,2,1.8,2,3.4c0,0.1,0,1-0.5,1.9c-0.4,0.7-0.9,1.2-1.5,1.5L116.4,136.1z M110.9,131.8h1.7c0.8,0,1.4-0.3,1.7-0.9
			c0.3-0.5,0.3-1,0.3-1.1c0-0.8-0.3-1.4-0.9-1.7c-0.5-0.2-1-0.2-1-0.2h-1.7V131.8z"/>
		<path class="st1" d="M124.7,126c0.5,0,1,0.4,1,1c0,0.5-0.5,1-1,1h-2v8.7c0,0.5-0.5,1-1,1s-1-0.4-1-1v-8.7h-2c-0.5,0-1-0.4-1-1
			c0-0.5,0.4-1,1-1H124.7z"/>
		<path class="st1" d="M128.2,135.4c-0.5-1-0.5-2-0.5-2.1V127c0-0.5,0.4-1,1-1c0.5,0,1,0.4,1,1v6.3c0,0.2,0.2,2.4,2.2,2.4
			c1.9,0,2.2-2,2.2-2.4V127c0-0.5,0.4-1,1-1c0.5,0,1,0.4,1,1v6.3c0,0.1,0,1.1-0.5,2.1c-0.7,1.5-2,2.3-3.7,2.3
			S128.8,136.8,128.2,135.4z"/>
		<path class="st1" d="M147,136.3c0.1,0.1,0.1,0.2,0.1,0.4c0,0.5-0.4,1-1,1c-0.4,0-0.8-0.2-0.9-0.6l-0.7-1.8h-4.6l-0.7,1.8
			c-0.2,0.4-0.5,0.6-0.9,0.6c-0.6,0-1-0.5-1-1c0-0.1,0-0.2,0.1-0.4l3.9-9.7c0.2-0.4,0.5-0.6,0.9-0.6c0.4,0,0.8,0.2,0.9,0.6
			L147,136.3z M143.7,133.3l-1.5-3.7l-1.5,3.7H143.7z"/>
		<path class="st1" d="M150.1,137.6c-0.6,0-1-0.4-1-1V127c0-0.5,0.4-1,1-1c0.5,0,1,0.4,1,1v8.7h3.4c0.5,0,1,0.4,1,1c0,0.5-0.5,1-1,1
			H150.1z"/>
	</g>
	<g>
		<path class="st1" d="M172.9,187v-9.7c0-0.5,0.4-1,1-1c0.5,0,1,0.4,1,1v9.7c0,0.5-0.4,1-1,1C173.3,187.9,172.9,187.5,172.9,187z"/>
		<path class="st1" d="M183.9,187.5l-5.1-7.2v6.6c0,0.5-0.5,1-1,1c-0.5,0-1-0.4-1-1v-9.7c0-0.5,0.4-1,1-1c0.3,0,0.6,0.1,0.8,0.4
			l5.1,7.2v-6.6c0-0.5,0.4-1,1-1c0.5,0,1,0.4,1,1v9.7c0,0.5-0.4,1-1,1C184.4,187.9,184.1,187.8,183.9,187.5z"/>
		<path class="st1" d="M196.6,187v-6.8l-2.6,3.5c-0.2,0.2-0.5,0.4-0.8,0.4c-0.3,0-0.6-0.1-0.8-0.4l-2.6-3.5v6.8c0,0.5-0.4,1-1,1
			c-0.5,0-1-0.4-1-1v-9.7c0-0.5,0.4-1,1-1c0.3,0,0.6,0.1,0.8,0.4l3.6,4.8l3.6-4.8c0.2-0.2,0.5-0.4,0.8-0.4c0.6,0,1,0.4,1,1v9.7
			c0,0.5-0.4,1-1,1C197,187.9,196.6,187.5,196.6,187z"/>
		<path class="st1" d="M200.6,182.1c0-3.2,2.5-5.8,5.6-5.8c3.1,0,5.7,2.6,5.7,5.8c0,3.2-2.5,5.8-5.7,5.8
			C203.1,187.9,200.6,185.3,200.6,182.1z M202.6,182.1c0,2.1,1.7,3.9,3.7,3.9c2,0,3.7-1.7,3.7-3.9c0-2.1-1.7-3.9-3.7-3.9
			C204.2,178.2,202.6,180,202.6,182.1z"/>
		<path class="st1" d="M221.8,184.3c0,2.2-1.9,3.6-3.5,3.6h-3.4c-0.5,0-1-0.4-1-1v-9.7c0-0.5,0.4-1,1-1h2.7c0.1,0,0.8,0,1.5,0.4
			c1.1,0.5,1.7,1.5,1.7,2.8c0,0.7-0.2,1.3-0.5,1.8C221.3,181.9,221.8,183,221.8,184.3z M215.9,180.7h1.5c0.3,0,1.5,0,1.5-1.2
			c0-1.1-0.8-1.2-1.1-1.2c-0.1,0-0.1,0-0.1,0h-1.7V180.7z M219.8,184.3c0-0.6-0.4-1.7-1.6-1.7h-2.3v3.4h2.3c0,0,0.5,0,0.9-0.2
			C219.8,185.4,219.8,184.7,219.8,184.3z"/>
		<path class="st1" d="M223.8,187v-9.7c0-0.5,0.4-1,1-1c0.5,0,1,0.4,1,1v9.7c0,0.5-0.4,1-1,1C224.3,187.9,223.8,187.5,223.8,187z"/>
		<path class="st1" d="M228.8,187.9c-0.6,0-1-0.4-1-1v-9.7c0-0.5,0.4-1,1-1c0.5,0,1,0.4,1,1v8.7h3.4c0.5,0,1,0.4,1,1
			c0,0.5-0.5,1-1,1H228.8z"/>
		<path class="st1" d="M236.2,187v-9.7c0-0.5,0.4-1,1-1c0.5,0,1,0.4,1,1v9.7c0,0.5-0.4,1-1,1C236.7,187.9,236.2,187.5,236.2,187z"/>
		<path class="st1" d="M249.9,186.6c0.1,0.1,0.1,0.2,0.1,0.4c0,0.5-0.4,1-1,1c-0.4,0-0.8-0.2-0.9-0.6l-0.7-1.8h-4.6l-0.7,1.8
			c-0.2,0.4-0.5,0.6-0.9,0.6c-0.6,0-1-0.5-1-1c0-0.1,0-0.2,0.1-0.4l3.9-9.7c0.2-0.4,0.5-0.6,0.9-0.6c0.4,0,0.8,0.2,0.9,0.6
			L249.9,186.6z M246.6,183.6l-1.5-3.7l-1.5,3.7H246.6z"/>
		<path class="st1" d="M259.5,186.4c0.1,0.2,0.2,0.3,0.2,0.5c0,0.3-0.2,0.6-0.5,0.8c-0.2,0.1-0.3,0.1-0.5,0.1
			c-0.3,0-0.7-0.2-0.8-0.4l-2.2-3.4H254v2.9c0,0.5-0.5,1-1,1c-0.5,0-1-0.4-1-1v-9.7c0-0.5,0.4-1,1-1h2.7c0.1,0,1,0,1.9,0.5
			c1.3,0.6,2,1.8,2,3.4c0,0.1,0,1-0.5,1.9c-0.4,0.7-0.9,1.2-1.5,1.5L259.5,186.4z M254,182.1h1.7c0.8,0,1.4-0.3,1.7-0.9
			c0.3-0.5,0.3-1,0.3-1.1c0-0.8-0.3-1.4-0.9-1.7c-0.5-0.2-1-0.2-1-0.2H254V182.1z"/>
		<path class="st1" d="M261.7,187v-9.7c0-0.5,0.4-1,1-1s1,0.4,1,1v9.7c0,0.5-0.4,1-1,1S261.7,187.5,261.7,187z"/>
		<path class="st1" d="M275.4,186.6c0.1,0.1,0.1,0.2,0.1,0.4c0,0.5-0.4,1-1,1c-0.4,0-0.8-0.2-0.9-0.6l-0.7-1.8h-4.6l-0.7,1.8
			c-0.2,0.4-0.5,0.6-0.9,0.6c-0.6,0-1-0.5-1-1c0-0.1,0-0.2,0.1-0.4l3.9-9.7c0.2-0.4,0.5-0.6,0.9-0.6c0.4,0,0.8,0.2,0.9,0.6
			L275.4,186.6z M272.1,183.6l-1.5-3.7l-1.5,3.7H272.1z"/>
	</g>
	<path class="st0" d="M166.3,180.9l-4.5-4.5c-0.6-0.6-1.7-0.2-1.7,0.7v9c0,0.9,1.1,1.4,1.7,0.7l4.5-4.5
		C166.7,182,166.7,181.3,166.3,180.9z"/>
	<path class="st0" d="M157.1,180.9l-4.5-4.5c-0.6-0.6-1.7-0.2-1.7,0.7v9c0,0.9,1.1,1.4,1.7,0.7l4.5-4.5
		C157.5,182,157.5,181.3,157.1,180.9z"/>
	<path class="st0" d="M147.8,180.9l-4.5-4.5c-0.6-0.6-1.7-0.2-1.7,0.7v9c0,0.9,1.1,1.4,1.7,0.7l4.5-4.5
		C148.2,182,148.2,181.3,147.8,180.9z"/>
</g>
<g>
	<g>
		<path class="st1" d="M164.9,15.6c4.6,6.9,17.1,25.5,25,37.1l7.9-14.9c-0.5-0.8-24.6-36.5-24.6-36.5h-37.7l-7.5,14.4H164.9z"/>
	</g>
	<g>
		<path class="st2" d="M201,61.8c-6.9,4.6-25.5,17.1-37.1,25l14.9,7.9c0.8-0.5,36.5-24.6,36.5-24.6V32.4L201,24.9V61.8z"/>
	</g>
	<g>
		<g>
			<path class="st3" d="M154.8,98c-4.6-6.9-17.1-25.5-25-37.1l-7.9,14.9c0.5,0.8,24.6,36.5,24.6,36.5h37.7l7.5-14.4H154.8z"/>
		</g>
	</g>
	<g>
		<path class="st0" d="M118.7,51.8c6.9-4.6,25.5-17.1,37.1-25l-14.9-7.9c-0.8,0.5-36.5,24.6-36.5,24.6v37.7l14.4,7.5V51.8z"/>
	</g>
	<g>
		<g>
			<g>
				<polygon class="st0" points="155.7,63.7 155.7,62.8 155.7,59.9 155.7,56 153.9,56 160.6,50 155.1,45.1 147.8,49.3 147.8,64.7 
					155.7,69.3 				"/>
				<path class="st0" d="M161.5,49.7C161.5,49.7,161.5,49.7,161.5,49.7l3.5,3.1l2.4,2.2l0,0l1.1,1h-1.8v6.8h7.9V49.3l-13.4-7.7
					l-5.4,3.1L161.5,49.7z"/>
				<polygon class="st0" points="156.6,63.7 156.6,69.8 161.2,72.5 174.7,64.7 174.7,63.7 				"/>
			</g>
			<path class="st0" d="M176,48l-0.4-0.3L162.1,40l-0.4-0.3c-0.1-0.1-0.3-0.1-0.4-0.1c-0.2,0-0.3,0-0.4,0.1l-0.4,0.3l-13.4,7.7
				l-0.4,0.3c-0.3,0.2-0.4,0.5-0.4,0.8v0.5v15.5v0.5c0,0.3,0.2,0.6,0.4,0.8l0.4,0.3l13.4,7.7l0.4,0.3c0.1,0.1,0.3,0.1,0.4,0.1
				c0.2,0,0.3,0,0.4-0.1l0.4-0.3l13.4-7.7L176,66c0.3-0.2,0.4-0.5,0.4-0.8v-0.5V49.3v-0.5C176.4,48.4,176.3,48.1,176,48z
				 M175.5,49.3v15.5v0.5l-0.4,0.3l-13.4,7.7l-0.4,0.3l-0.4-0.3l-13.4-7.7l-0.4-0.3v-0.5V49.3v-0.5l0.4-0.3l13.4-7.7l0.4-0.3
				l0.4,0.3l13.4,7.7l0.4,0.3V49.3z"/>
			<g>
				<path class="st0" d="M160.9,55.9h-1.8c-0.1,0-0.1,0.1-0.1,0.1v1.8c0,0.1,0.1,0.1,0.1,0.1h1.8c0.1,0,0.1-0.1,0.1-0.1V56
					C161,55.9,161,55.9,160.9,55.9z"/>
				<path class="st0" d="M163.4,58.4h-1.8c-0.1,0-0.1,0.1-0.1,0.1v1.8c0,0.1,0.1,0.1,0.1,0.1h1.8c0.1,0,0.1-0.1,0.1-0.1v-1.8
					C163.5,58.4,163.5,58.4,163.4,58.4z"/>
				<path class="st0" d="M160.9,58.4h-1.8c-0.1,0-0.1,0.1-0.1,0.1v1.8c0,0.1,0.1,0.1,0.1,0.1h1.8c0.1,0,0.1-0.1,0.1-0.1v-1.8
					C161,58.4,161,58.4,160.9,58.4z"/>
				<path class="st0" d="M163.4,55.9h-1.8c-0.1,0-0.1,0.1-0.1,0.1v1.8c0,0.1,0.1,0.1,0.1,0.1h1.8c0.1,0,0.1-0.1,0.1-0.1V56
					C163.5,55.9,163.5,55.9,163.4,55.9z"/>
			</g>
			<g class="st4">
				<path class="st0" d="M160.6,50l-5.5-4.9l-7.2,4.2v15.5l7.9,4.5v-5.6v-0.9v-2.9V56h-1.8L160.6,50z M155.4,56.3v3.6v2.9v0.9v5
					l-7.2-4.2V49.4l6.9-4l5.1,4.5l-6.4,5.7c-0.1,0.1-0.1,0.2-0.1,0.4c0,0.1,0.2,0.2,0.3,0.2H155.4z"/>
				<path class="st0" d="M161.2,41.5l-5.4,3.1l5.6,5.1c0,0,0,0,0,0l3.4,3.1l2.4,2.2l0,0l1.1,1h-1.8v6.8h7.9V49.3L161.2,41.5z
					 M174.3,62.5h-7.2v-6.2h1.4c0.1,0,0.3-0.1,0.3-0.2c0-0.1,0-0.3-0.1-0.4l-1.1-1c0,0,0,0,0,0l-2.4-2.2l-3.4-3.1c0,0,0,0,0,0
					l-5.3-4.7l4.8-2.8l13.1,7.6V62.5z"/>
				<path class="st0" d="M156.6,69.8l4.6,2.7l13.4-7.7v-1h-18.1V69.8z M156.9,64h17.4v0.5l-13.1,7.6l-4.3-2.5V64z"/>
			</g>
		</g>
	</g>
</g>
</svg>
