<?xml version="1.0" encoding="utf-8"?>
<!-- Generator: Adobe Illustrator 22.0.1, SVG Export Plug-In . SVG Version: 6.00 Build 0)  -->
<svg version="1.1" id="Capa_1" xmlns="http://www.w3.org/2000/svg" xmlns:xlink="http://www.w3.org/1999/xlink" x="0px" y="0px"
	 viewBox="0 0 512 512" style="enable-background:new 0 0 512 512;" xml:space="preserve">
<style type="text/css">
	.st0{fill:#EAEAEA;}
</style>
<path class="st0" d="M443.3,132.7c6.2,6.2,6.2,16.4,0,22.6s-16.4,6.2-22.6,0s-6.2-16.4,0-22.6C426.9,126.4,437.1,126.4,443.3,132.7"
	/>
<path class="st0" d="M464,64h-82.7c-6.6-18.6-24.4-32-45.3-32H176c-20.6,0-38,13.1-44.9,31.3L156.9,89c1.8-2.6,3.1-5.6,3.1-9
	c0-8.8,7.2-16,16-16h160c8.8,0,16,7.2,16,16c0,8.8,7.2,16,16,16h96c8.8,0,16,7.2,16,16v288c0,3.4-1.3,6.4-3.1,9l22.8,22.8
	c7.6-8.5,12.3-19.6,12.3-31.8V112C512,85.5,490.5,64,464,64L464,64z"/>
<path class="st0" d="M373.8,306c6.5-15.4,10.2-32.2,10.2-50c0-70.6-57.4-128-128-128c-17.7,0-34.6,3.6-50,10.2l25.4,25.4
	c7.9-2.1,16-3.6,24.5-3.6c52.9,0,96,43.1,96,96c0,8.5-1.5,16.7-3.6,24.5C348.4,280.5,373.8,306,373.8,306z"/>
<path class="st0" d="M0,22.6l42,42c-23.6,3-42,23-42,47.4v288c0,26.5,21.5,48,48,48h377.4l64,64l22.6-22.6L22.6,0L0,22.6z M48,416
	c-8.8,0-16-7.2-16-16V112c0-8.8,7.2-16,16-16h25.4l82.2,82.2C138.7,199.8,128,226.5,128,256c0,70.6,57.4,128,128,128
	c29.5,0,56.2-10.6,77.9-27.5l59.5,59.5L48,416z M178.3,200.9l132.8,132.8C295.5,345,276.7,352,256,352c-52.9,0-96-43.1-96-96
	C160,235.3,167.1,216.6,178.3,200.9L178.3,200.9z"/>
</svg>
